# xmcd CD database file
#
# Track frame offsets:
#	150
#	14444
#	26453
#	38343
#	49164
#	68394
#	82163
#	98731
#	112378
#	128040
#	143638
#	157201
#	172878
#	185052
#	201919
#	219684
#	233980
#	251858
#	263930
#	277893
#
# Disc length: 3950 seconds
#
# Revision: 0
# Processed by: cddbd v1.5.2PL0 Copyright (c) Steve Scherf et al.
# Submitted via: CDex 1.70beta2
#
DISCID=230f6c14
DTITLE=Rogers, Dan Paul - Cdn. - Timeless
DYEAR=1900
DGENRE=Country
TTITLE0=You're Just A Little Doll
TTITLE1=Ramblin' Blue Eyes
TTITLE2=Rescue (Dan Paul Rogers) - Love's Cheatin' Line
TTITLE3=Rumour
TTITLE4=This Silent War
TTITLE5=Rescue (Dan Paul Rogers) - What Has Happened
TTITLE6=Somebody
TTITLE7=Cardboard Boxes
TTITLE8=Oh Caroline
TTITLE9=Don't Cry Lady
TTITLE10=I Believe In Country Music
TTITLE11=If There's One Reason I Should Stay
TTITLE12=Lover's Game
TTITLE13=Lovin' You Comes Easy
TTITLE14=The Truth
TTITLE15=If Only In My Mind
TTITLE16=Then I See You
TTITLE17=Through Your Eyes
TTITLE18=One Good Reason
TTITLE19=A Place Out In The Country
EXTD=
EXTT0=
EXTT1=
EXTT2=
EXTT3=
EXTT4=
EXTT5=
EXTT6=
EXTT7=
EXTT8=
EXTT9=
EXTT10=
EXTT11=
EXTT12=
EXTT13=
EXTT14=
EXTT15=
EXTT16=
EXTT17=
EXTT18=
EXTT19=
PLAYORDER=
